<?xml version="1.0" standalone="no"?><!DOCTYPE svg PUBLIC "-//W3C//DTD SVG 1.1//EN" "http://www.w3.org/Graphics/SVG/1.1/DTD/svg11.dtd"><svg t="1607567573863" class="icon" viewBox="0 0 1024 1024" version="1.1" xmlns="http://www.w3.org/2000/svg" p-id="6818" width="1024" height="1024" xmlns:xlink="http://www.w3.org/1999/xlink"><defs><style type="text/css"></style></defs><path d="M512.796481 552.080518L15.790015 780.540732l497.006466 228.468214L1009.804947 780.540732z m0 0" fill="#FFC843" p-id="6819"></path><path d="M512.796481 283.540266L15.790015 512.00848l497.006466 228.460214 497.008466-228.460214z m0 0" fill="#76FFD9" p-id="6820"></path><path d="M512.796481 15.000014L15.790015 243.468228l497.006466 228.460214 497.008466-228.460214z m0 0" fill="#FFFFFF" p-id="6821"></path><path d="M512.796481 15.000014l-55.000052 25.280024 442.008415 203.18819-442.008415 203.180191 55.000052 25.280023 497.008466-228.460214z m0 0" fill="#E1EAF8" p-id="6822"></path><path d="M592.532555 955.844896l-79.736074 36.656034L51.704048 780.546732l273.906257-126.124118-36.868034-16.946016-279.220262 129.438121c-11.358011 5.226005-11.374011 22.032021 0 27.258026L506.534475 1022.640959a15.120014 15.120014 0 0 0 12.530012 0l86.00008-39.540037c17.540016-8.060008 5.134005-35.380033-12.530011-27.256026z m0 0M519.062487 485.562455l497.000466-228.468214c11.368011-5.226005 11.376011-22.032021 0-27.258026L519.062487 1.368001a15.018014 15.018014 0 0 0-12.852012 0.156l-45.000043 22.000021c-17.342016 8.476008-4.288004 35.476033 13.172013 26.952025l38.610036-18.874017 84.750079 38.952036-85.50808 39.314037-110.188103-50.500047c-5.506005-2.524002-10.48401-4.750004-16.500016-2.000002L9.540009 229.836215c-11.376011 5.220005-11.392011 22.032021-0.008 27.258026L506.540475 485.560455a15.100014 15.100014 0 0 0 12.522012 0z m114.586107-85.69408l-84.93808-39.048037 93.360088-42.91404 84.626079 39.188037z m-119.976112-141.408133l92.610086 42.876041-93.486087 42.97604-92.944087-42.72604z m-129.734122 26.620025l-90.524085-41.612039 94.290088-43.34204 90.194085 41.764039z m165.570155-43.09604l89.360084-41.078039 93.086087 42.66404-89.844084 41.298039z m213.0242 98.640092l-84.634079-39.186036 90.024084-41.384039 85.07008 38.986036z m211.360198-97.156091l-84.95408 39.048037-85.064079-38.984037 85.072079-39.110036z m-120.860113-55.554052l-85.12608 39.132037-93.086087-42.66404 85.26608-39.194037zM633.656594 87.062082l90.516085 41.618039-85.32008 39.220036-90.656085-41.556039z m-121.414114 55.814052l90.664085 41.546039-89.180083 41.000038-90.194085-41.766039zM391.620367 87.586082l84.66408 38.804036-88.540083 40.696039-84.32008-39.046037z m-124.064116 56.906053l84.360079 39.062037-94.414089 43.406041-84.774079-38.976037zM51.742049 243.476228l85.032079-39.000036 84.81208 38.992036-84.93808 39.048037z m211.344198 97.156091l-90.524085-41.608039 84.938079-39.048036 90.524085 41.610039z m35.914033 16.508016l84.93808-39.046037 92.944087 42.72604-84.93608 39.048037z m213.796201 20.188019l84.940079 39.048036-84.940079 39.046037-84.93608-39.048037z m0 0M1016.062953 766.914719l-281.414264-128.780121-35.586034 16.710016 274.820258 125.702118-283.350266 130.250122c-17.548016 8.072008-5.118005 35.376033 12.530012 27.260025l313.000294-143.884134c11.368011-5.226005 11.376011-22.032021 0-27.258026z m0 0" fill="#434C54" p-id="6823"></path></svg>